<?xml version="1.0" encoding="UTF-8"?>
<svg version="1.1" xmlns="http://www.w3.org/2000/svg" width="128" height="128">
<path d="M0 0 C42.24 0 84.48 0 128 0 C128 42.24 128 84.48 128 128 C85.76 128 43.52 128 0 128 C0 85.76 0 43.52 0 0 Z " fill="#F0DAB6" transform="translate(0,0)"/>
<path d="M0 0 C42.24 0 84.48 0 128 0 C128 42.24 128 84.48 128 128 C85.76 128 43.52 128 0 128 C0 85.76 0 43.52 0 0 Z M12 12 C12 45 12 78 12 112 C14.64 112 17.28 112 20 112 C20 105.4 20 98.8 20 92 C21.32 92 22.64 92 24 92 C24 81.44 24 70.88 24 60 C25.32 60 26.64 60 28 60 C28 50.76 28 41.52 28 32 C30.64 32 33.28 32 36 32 C36 33.32 36 34.64 36 36 C41.28 36 46.56 36 52 36 C52 37.32 52 38.64 52 40 C58.6 40 65.2 40 72 40 C72 41.32 72 42.64 72 44 C78.6 44 85.2 44 92 44 C92 50.6 92 57.2 92 64 C85.4 64 78.8 64 72 64 C72 62.68 72 61.36 72 60 C66.72 60 61.44 60 56 60 C56 58.68 56 57.36 56 56 C52.04 56 48.08 56 44 56 C44 54.68 44 53.36 44 52 C41.36 52 38.72 52 36 52 C36 57.28 36 62.56 36 68 C34.68 68 33.36 68 32 68 C32 77.24 32 86.48 32 96 C30.68 96 29.36 96 28 96 C28 101.28 28 106.56 28 112 C30.64 112 33.28 112 36 112 C36 110.68 36 109.36 36 108 C61.08 108 86.16 108 112 108 C112 106.68 112 105.36 112 104 C113.32 104 114.64 104 116 104 C116 73.64 116 43.28 116 12 C81.68 12 47.36 12 12 12 Z " fill="#CD840E" transform="translate(0,0)"/>
<path d="M0 0 C2.64 0 5.28 0 8 0 C8 1.32 8 2.64 8 4 C13.28 4 18.56 4 24 4 C24 5.32 24 6.64 24 8 C30.6 8 37.2 8 44 8 C44 9.32 44 10.64 44 12 C50.6 12 57.2 12 64 12 C64 18.6 64 25.2 64 32 C57.4 32 50.8 32 44 32 C44 30.68 44 29.36 44 28 C38.72 28 33.44 28 28 28 C28 26.68 28 25.36 28 24 C24.04 24 20.08 24 16 24 C16 22.68 16 21.36 16 20 C13.36 20 10.72 20 8 20 C8 25.28 8 30.56 8 36 C6.68 36 5.36 36 4 36 C4 45.24 4 54.48 4 64 C2.68 64 1.36 64 0 64 C0 69.28 0 74.56 0 80 C2.64 80 5.28 80 8 80 C8 78.68 8 77.36 8 76 C33.08 76 58.16 76 84 76 C84 74.68 84 73.36 84 72 C85.32 72 86.64 72 88 72 C88 75.96 88 79.92 88 84 C53.68 84 19.36 84 -16 84 C-16 82.68 -16 81.36 -16 80 C-13.36 80 -10.72 80 -8 80 C-8 73.4 -8 66.8 -8 60 C-6.68 60 -5.36 60 -4 60 C-4 49.44 -4 38.88 -4 28 C-2.68 28 -1.36 28 0 28 C0 18.76 0 9.52 0 0 Z " fill="#A5A5A5" transform="translate(28,32)"/>
<path d="M0 0 C34.32 0 68.64 0 104 0 C104 7.92 104 15.84 104 24 C96.08 24 88.16 24 80 24 C80 22.68 80 21.36 80 20 C74.72 20 69.44 20 64 20 C64 18.68 64 17.36 64 16 C58.72 16 53.44 16 48 16 C48 14.68 48 13.36 48 12 C40.08 12 32.16 12 24 12 C24 13.32 24 14.64 24 16 C17.4 16 10.8 16 4 16 C4 17.32 4 18.64 4 20 C2.68 20 1.36 20 0 20 C0 13.4 0 6.8 0 0 Z " fill="#E7C690" transform="translate(12,12)"/>
<path d="M0 0 C9.24 0 18.48 0 28 0 C28 1.32 28 2.64 28 4 C41.2 4 54.4 4 68 4 C68 5.32 68 6.64 68 8 C70.64 8 73.28 8 76 8 C76 9.32 76 10.64 76 12 C74.68 12 73.36 12 72 12 C72 13.32 72 14.64 72 16 C46.92 16 21.84 16 -4 16 C-4 17.32 -4 18.64 -4 20 C-6.64 20 -9.28 20 -12 20 C-12 14.72 -12 9.44 -12 4 C-8.04 4 -4.08 4 0 4 C0 2.68 0 1.36 0 0 Z " fill="#B5DF97" transform="translate(40,92)"/>
<path d="M0 0 C2.64 0 5.28 0 8 0 C8 1.32 8 2.64 8 4 C11.96 4 15.92 4 20 4 C20 5.32 20 6.64 20 8 C25.28 8 30.56 8 36 8 C36 9.32 36 10.64 36 12 C42.6 12 49.2 12 56 12 C56 18.6 56 25.2 56 32 C49.4 32 42.8 32 36 32 C36 30.68 36 29.36 36 28 C30.72 28 25.44 28 20 28 C20 26.68 20 25.36 20 24 C16.04 24 12.08 24 8 24 C8 22.68 8 21.36 8 20 C5.36 20 2.72 20 0 20 C0 13.4 0 6.8 0 0 Z " fill="#FFFFFF" transform="translate(36,52)"/>
<path d="M0 0 C5.28 0 10.56 0 16 0 C16 1.32 16 2.64 16 4 C22.6 4 29.2 4 36 4 C36 5.32 36 6.64 36 8 C42.6 8 49.2 8 56 8 C56 14.6 56 21.2 56 28 C49.4 28 42.8 28 36 28 C36 26.68 36 25.36 36 24 C30.72 24 25.44 24 20 24 C20 22.68 20 21.36 20 20 C16.04 20 12.08 20 8 20 C8 18.68 8 17.36 8 16 C5.36 16 2.72 16 0 16 C0 10.72 0 5.44 0 0 Z " fill="#DD0D0D" transform="translate(36,36)"/>
<path d="M0 0 C34.32 0 68.64 0 104 0 C104 6.6 104 13.2 104 20 C102.68 20 101.36 20 100 20 C100 18.68 100 17.36 100 16 C98.68 16 97.36 16 96 16 C96 14.68 96 13.36 96 12 C90.72 12 85.44 12 80 12 C80 10.68 80 9.36 80 8 C70.76 8 61.52 8 52 8 C52 6.68 52 5.36 52 4 C45.4 4 38.8 4 32 4 C32 5.32 32 6.64 32 8 C22.76 8 13.52 8 4 8 C4 9.32 4 10.64 4 12 C2.68 12 1.36 12 0 12 C0 8.04 0 4.08 0 0 Z " fill="#E8C284" transform="translate(12,12)"/>
<path d="M0 0 C1.32 0 2.64 0 4 0 C4 3.96 4 7.92 4 12 C-25.04 12 -54.08 12 -84 12 C-84 10.68 -84 9.36 -84 8 C-81.36 8 -78.72 8 -76 8 C-76 6.68 -76 5.36 -76 4 C-50.92 4 -25.84 4 0 4 C0 2.68 0 1.36 0 0 Z " fill="#93C96D" transform="translate(112,104)"/>
<path d="M0 0 C9.24 0 18.48 0 28 0 C28 1.32 28 2.64 28 4 C41.2 4 54.4 4 68 4 C68 5.32 68 6.64 68 8 C70.64 8 73.28 8 76 8 C76 9.32 76 10.64 76 12 C72.04 12 68.08 12 64 12 C64 10.68 64 9.36 64 8 C38.92 8 13.84 8 -12 8 C-12 6.68 -12 5.36 -12 4 C-8.04 4 -4.08 4 0 4 C0 2.68 0 1.36 0 0 Z " fill="#C5EEA8" transform="translate(40,92)"/>
<path d="M0 0 C2.64 0 5.28 0 8 0 C8 1.32 8 2.64 8 4 C6.68 4 5.36 4 4 4 C4 5.32 4 6.64 4 8 C-6.56 8 -17.12 8 -28 8 C-28 6.68 -28 5.36 -28 4 C-18.76 4 -9.52 4 0 4 C0 2.68 0 1.36 0 0 Z " fill="#B6750C" transform="translate(116,120)"/>
<path d="M0 0 C1.32 0 2.64 0 4 0 C4 1.32 4 2.64 4 4 C5.32 4 6.64 4 8 4 C8 11.92 8 19.84 8 28 C6.68 28 5.36 28 4 28 C4 21.4 4 14.8 4 8 C2.68 8 1.36 8 0 8 C0 5.36 0 2.72 0 0 Z " fill="#B6750C" transform="translate(0,44)"/>
<path d="M0 0 C9.24 0 18.48 0 28 0 C28 1.32 28 2.64 28 4 C18.76 4 9.52 4 0 4 C0 2.68 0 1.36 0 0 Z " fill="#B6750C" transform="translate(12,4)"/>
<path d="M0 0 C7.92 0 15.84 0 24 0 C24 1.32 24 2.64 24 4 C16.08 4 8.16 4 0 4 C0 2.68 0 1.36 0 0 Z " fill="#B6750C" transform="translate(16,124)"/>
<path d="M0 0 C2.64 0 5.28 0 8 0 C8 3.96 8 7.92 8 12 C5.36 12 2.72 12 0 12 C0 8.04 0 4.08 0 0 Z " fill="#B5DF97" transform="translate(12,100)"/>
<path d="M0 0 C5.28 0 10.56 0 16 0 C16 1.32 16 2.64 16 4 C12.04 4 8.08 4 4 4 C4 5.32 4 6.64 4 8 C1.36 8 -1.28 8 -4 8 C-4 6.68 -4 5.36 -4 4 C-2.68 4 -1.36 4 0 4 C0 2.68 0 1.36 0 0 Z " fill="#EED4A8" transform="translate(16,28)"/>
<path d="M0 0 C7.92 0 15.84 0 24 0 C24 1.32 24 2.64 24 4 C16.08 4 8.16 4 0 4 C0 2.68 0 1.36 0 0 Z " fill="#EED4A8" transform="translate(36,24)"/>
<path d="M0 0 C5.28 0 10.56 0 16 0 C16 1.32 16 2.64 16 4 C17.32 4 18.64 4 20 4 C20 5.32 20 6.64 20 8 C17.36 8 14.72 8 12 8 C12 6.68 12 5.36 12 4 C8.04 4 4.08 4 0 4 C0 2.68 0 1.36 0 0 Z " fill="#B6750C" transform="translate(100,0)"/>
<path d="M0 0 C1.32 0 2.64 0 4 0 C4 2.64 4 5.28 4 8 C5.32 8 6.64 8 8 8 C8 10.64 8 13.28 8 16 C6.68 16 5.36 16 4 16 C4 14.68 4 13.36 4 12 C2.68 12 1.36 12 0 12 C0 8.04 0 4.08 0 0 Z " fill="#B6750C" transform="translate(116,40)"/>
<path d="M0 0 C1.32 0 2.64 0 4 0 C4 2.64 4 5.28 4 8 C2.68 8 1.36 8 0 8 C0 10.64 0 13.28 0 16 C-1.32 16 -2.64 16 -4 16 C-4 12.04 -4 8.08 -4 4 C-2.68 4 -1.36 4 0 4 C0 2.68 0 1.36 0 0 Z " fill="#B6750C" transform="translate(4,12)"/>
<path d="M0 0 C5.28 0 10.56 0 16 0 C16 1.32 16 2.64 16 4 C10.72 4 5.44 4 0 4 C0 2.68 0 1.36 0 0 Z " fill="#B6750C" transform="translate(72,116)"/>
<path d="M0 0 C1.32 0 2.64 0 4 0 C4 5.28 4 10.56 4 16 C2.68 16 1.36 16 0 16 C0 10.72 0 5.44 0 0 Z " fill="#B6750C" transform="translate(0,96)"/>
<path d="M0 0 C5.28 0 10.56 0 16 0 C16 1.32 16 2.64 16 4 C10.72 4 5.44 4 0 4 C0 2.68 0 1.36 0 0 Z " fill="#EED4A8" transform="translate(60,28)"/>
<path d="M0 0 C1.32 0 2.64 0 4 0 C4 5.28 4 10.56 4 16 C2.68 16 1.36 16 0 16 C0 10.72 0 5.44 0 0 Z " fill="#B6750C" transform="translate(124,20)"/>
<path d="M0 0 C2.64 0 5.28 0 8 0 C8 1.32 8 2.64 8 4 C9.32 4 10.64 4 12 4 C12 5.32 12 6.64 12 8 C9.36 8 6.72 8 4 8 C4 6.68 4 5.36 4 4 C2.68 4 1.36 4 0 4 C0 2.68 0 1.36 0 0 Z " fill="#B6750C" transform="translate(52,4)"/>
<path d="M0 0 C1.32 0 2.64 0 4 0 C4 3.96 4 7.92 4 12 C2.68 12 1.36 12 0 12 C0 8.04 0 4.08 0 0 Z " fill="#B6750C" transform="translate(120,68)"/>
<path d="M0 0 C3.96 0 7.92 0 12 0 C12 1.32 12 2.64 12 4 C8.04 4 4.08 4 0 4 C0 2.68 0 1.36 0 0 Z " fill="#B6750C" transform="translate(80,4)"/>
<path d="M0 0 C3.96 0 7.92 0 12 0 C12 1.32 12 2.64 12 4 C8.04 4 4.08 4 0 4 C0 2.68 0 1.36 0 0 Z " fill="#B6750C" transform="translate(68,0)"/>
<path d="M0 0 C2.64 0 5.28 0 8 0 C8 1.32 8 2.64 8 4 C5.36 4 2.72 4 0 4 C0 2.68 0 1.36 0 0 Z " fill="#B6750C" transform="translate(60,124)"/>
<path d="M0 0 C2.64 0 5.28 0 8 0 C8 1.32 8 2.64 8 4 C5.36 4 2.72 4 0 4 C0 2.68 0 1.36 0 0 Z " fill="#B6750C" transform="translate(52,120)"/>
<path d="M0 0 C2.64 0 5.28 0 8 0 C8 1.32 8 2.64 8 4 C5.36 4 2.72 4 0 4 C0 2.68 0 1.36 0 0 Z " fill="#93C96D" transform="translate(12,112)"/>
<path d="M0 0 C1.32 0 2.64 0 4 0 C4 2.64 4 5.28 4 8 C2.68 8 1.36 8 0 8 C0 5.36 0 2.72 0 0 Z " fill="#B6750C" transform="translate(124,104)"/>
<path d="M0 0 C2.64 0 5.28 0 8 0 C8 1.32 8 2.64 8 4 C5.36 4 2.72 4 0 4 C0 2.68 0 1.36 0 0 Z " fill="#C5EEA8" transform="translate(12,100)"/>
<path d="M0 0 C1.32 0 2.64 0 4 0 C4 2.64 4 5.28 4 8 C2.68 8 1.36 8 0 8 C0 5.36 0 2.72 0 0 Z " fill="#B6750C" transform="translate(120,96)"/>
<path d="M0 0 C1.32 0 2.64 0 4 0 C4 2.64 4 5.28 4 8 C2.68 8 1.36 8 0 8 C0 5.36 0 2.72 0 0 Z " fill="#B6750C" transform="translate(124,80)"/>
<path d="M0 0 C1.32 0 2.64 0 4 0 C4 2.64 4 5.28 4 8 C2.68 8 1.36 8 0 8 C0 5.36 0 2.72 0 0 Z " fill="#B6750C" transform="translate(4,80)"/>
<path d="M0 0 C2.64 0 5.28 0 8 0 C8 1.32 8 2.64 8 4 C5.36 4 2.72 4 0 4 C0 2.68 0 1.36 0 0 Z " fill="#EED4A8" transform="translate(108,36)"/>
<path d="M0 0 C2.64 0 5.28 0 8 0 C8 1.32 8 2.64 8 4 C5.36 4 2.72 4 0 4 C0 2.68 0 1.36 0 0 Z " fill="#EED4A8" transform="translate(84,32)"/>
</svg>
